<mxfile host="app.diagrams.net" agent="Mozilla/5.0 (Macintosh; Intel Mac OS X 10_15_7) AppleWebKit/537.36 (KHTML, like Gecko) Chrome/131.0.0.0 Safari/537.36" version="26.0.6">
  <diagram name="Seite-1" id="vxkfHqWLeRRNSSJ8OBPr">
    <mxGraphModel dx="1224" dy="761" grid="1" gridSize="10" guides="1" tooltips="1" connect="1" arrows="1" fold="1" page="1" pageScale="1" pageWidth="827" pageHeight="1169" math="0" shadow="0">
      <root>
        <mxCell id="0" />
        <mxCell id="1" parent="0" />
        <mxCell id="gSIQm5aoGnnjR2GNyn1D-1" style="rounded=0;orthogonalLoop=1;jettySize=auto;html=1;exitX=0;exitY=0;exitDx=95;exitDy=0;exitPerimeter=0;entryX=0;entryY=0;entryDx=100;entryDy=190;entryPerimeter=0;endArrow=none;endFill=0;" edge="1" parent="1" source="gSIQm5aoGnnjR2GNyn1D-6" target="gSIQm5aoGnnjR2GNyn1D-18">
          <mxGeometry relative="1" as="geometry">
            <mxPoint x="250" y="295" as="sourcePoint" />
            <mxPoint x="350" y="545" as="targetPoint" />
          </mxGeometry>
        </mxCell>
        <mxCell id="gSIQm5aoGnnjR2GNyn1D-2" value="&lt;span style=&quot;font-size: 12px; text-wrap: wrap; background-color: rgb(251, 251, 251);&quot;&gt;«&lt;/span&gt;protocol&lt;span style=&quot;font-size: 12px; text-wrap: wrap; background-color: rgb(251, 251, 251);&quot;&gt;»&lt;/span&gt;&lt;br&gt;ssh" style="edgeLabel;html=1;align=center;verticalAlign=middle;resizable=0;points=[];" vertex="1" connectable="0" parent="gSIQm5aoGnnjR2GNyn1D-1">
          <mxGeometry x="0.0596" y="4" relative="1" as="geometry">
            <mxPoint x="-16" y="40" as="offset" />
          </mxGeometry>
        </mxCell>
        <mxCell id="gSIQm5aoGnnjR2GNyn1D-4" style="rounded=0;orthogonalLoop=1;jettySize=auto;html=1;exitX=0;exitY=0;exitDx=95;exitDy=0;exitPerimeter=0;entryX=0;entryY=0;entryDx=100;entryDy=200;entryPerimeter=0;endArrow=none;endFill=0;" edge="1" parent="1" source="gSIQm5aoGnnjR2GNyn1D-6" target="gSIQm5aoGnnjR2GNyn1D-23">
          <mxGeometry relative="1" as="geometry">
            <mxPoint x="250" y="295" as="sourcePoint" />
            <mxPoint x="450" y="200" as="targetPoint" />
          </mxGeometry>
        </mxCell>
        <mxCell id="gSIQm5aoGnnjR2GNyn1D-5" value="&lt;span style=&quot;font-size: 12px; text-wrap: wrap; background-color: rgb(251, 251, 251);&quot;&gt;«&lt;/span&gt;protocol&lt;span style=&quot;font-size: 12px; text-wrap: wrap; background-color: rgb(251, 251, 251);&quot;&gt;»&lt;/span&gt;&lt;br&gt;ssh" style="edgeLabel;html=1;align=center;verticalAlign=middle;resizable=0;points=[];" vertex="1" connectable="0" parent="gSIQm5aoGnnjR2GNyn1D-4">
          <mxGeometry x="0.1343" relative="1" as="geometry">
            <mxPoint x="-7" y="-53" as="offset" />
          </mxGeometry>
        </mxCell>
        <mxCell id="gSIQm5aoGnnjR2GNyn1D-6" value="«device»&amp;nbsp;&lt;b&gt;Ansible Client&lt;/b&gt;" style="verticalAlign=top;align=center;shape=cube;size=10;direction=south;html=1;boundedLbl=1;spacingLeft=5;whiteSpace=wrap;" vertex="1" parent="1">
          <mxGeometry x="60" y="250" width="190" height="200" as="geometry" />
        </mxCell>
        <mxCell id="gSIQm5aoGnnjR2GNyn1D-7" value="«component»&lt;br&gt;&lt;b&gt;Cluster Preparation Playbook&lt;/b&gt;" style="html=1;dropTarget=0;whiteSpace=wrap;" vertex="1" parent="1">
          <mxGeometry x="90" y="290" width="130" height="60" as="geometry" />
        </mxCell>
        <mxCell id="gSIQm5aoGnnjR2GNyn1D-8" value="" style="shape=module;jettyWidth=8;jettyHeight=4;" vertex="1" parent="gSIQm5aoGnnjR2GNyn1D-7">
          <mxGeometry x="1" width="20" height="20" relative="1" as="geometry">
            <mxPoint x="-22" y="2" as="offset" />
          </mxGeometry>
        </mxCell>
        <mxCell id="gSIQm5aoGnnjR2GNyn1D-9" value="" style="group" vertex="1" connectable="0" parent="1">
          <mxGeometry x="95" y="365" width="110" height="70" as="geometry" />
        </mxCell>
        <mxCell id="gSIQm5aoGnnjR2GNyn1D-10" value="«artefact»&lt;br&gt;&lt;b&gt;Ansible&lt;/b&gt;" style="html=1;dropTarget=0;whiteSpace=wrap;" vertex="1" parent="gSIQm5aoGnnjR2GNyn1D-9">
          <mxGeometry width="110" height="70" as="geometry" />
        </mxCell>
        <mxCell id="gSIQm5aoGnnjR2GNyn1D-11" value="" style="shape=note2;boundedLbl=1;whiteSpace=wrap;html=1;size=6;verticalAlign=top;align=left;spacingLeft=5;" vertex="1" parent="gSIQm5aoGnnjR2GNyn1D-9">
          <mxGeometry x="88.84615384615384" y="8.75" width="12.692307692307692" height="17.5" as="geometry" />
        </mxCell>
        <mxCell id="gSIQm5aoGnnjR2GNyn1D-12" value="Verteilungsdiagramm: Ansible Installation Vorbereitung" style="shape=umlFrame;whiteSpace=wrap;html=1;pointerEvents=0;width=310;height=30;" vertex="1" parent="1">
          <mxGeometry x="40" y="50" width="760" height="570" as="geometry" />
        </mxCell>
        <mxCell id="gSIQm5aoGnnjR2GNyn1D-18" value="«device»&amp;nbsp;&lt;b&gt;artpc19 (node)&lt;/b&gt;" style="verticalAlign=top;align=center;shape=cube;size=10;direction=south;html=1;boundedLbl=1;spacingLeft=5;whiteSpace=wrap;" vertex="1" parent="1">
          <mxGeometry x="350" y="390" width="200" height="220" as="geometry" />
        </mxCell>
        <mxCell id="gSIQm5aoGnnjR2GNyn1D-32" style="edgeStyle=orthogonalEdgeStyle;rounded=0;orthogonalLoop=1;jettySize=auto;html=1;exitX=0.5;exitY=0;exitDx=0;exitDy=0;endArrow=open;endFill=0;entryX=0.5;entryY=1;entryDx=0;entryDy=0;endSize=11;dashed=1;" edge="1" parent="1" source="gSIQm5aoGnnjR2GNyn1D-19" target="gSIQm5aoGnnjR2GNyn1D-29">
          <mxGeometry relative="1" as="geometry">
            <mxPoint x="445" y="490" as="targetPoint" />
          </mxGeometry>
        </mxCell>
        <mxCell id="gSIQm5aoGnnjR2GNyn1D-19" value="«SSH Config»&lt;br&gt;&lt;b&gt;Ordner .ssh erstellen&lt;/b&gt;&lt;div&gt;&lt;b&gt;authorized_keys hinterlegen&lt;/b&gt;&lt;/div&gt;" style="html=1;dropTarget=0;whiteSpace=wrap;" vertex="1" parent="1">
          <mxGeometry x="360" y="525" width="170" height="65" as="geometry" />
        </mxCell>
        <mxCell id="gSIQm5aoGnnjR2GNyn1D-20" value="" style="shape=module;jettyWidth=8;jettyHeight=4;" vertex="1" parent="gSIQm5aoGnnjR2GNyn1D-19">
          <mxGeometry x="1" width="20" height="20" relative="1" as="geometry">
            <mxPoint x="-27" y="7" as="offset" />
          </mxGeometry>
        </mxCell>
        <mxCell id="gSIQm5aoGnnjR2GNyn1D-23" value="«device»&amp;nbsp;&lt;b&gt;artpc17 (master)&lt;/b&gt;" style="verticalAlign=top;align=center;shape=cube;size=10;direction=south;html=1;boundedLbl=1;spacingLeft=5;whiteSpace=wrap;" vertex="1" parent="1">
          <mxGeometry x="360" y="80" width="400" height="220" as="geometry" />
        </mxCell>
        <mxCell id="gSIQm5aoGnnjR2GNyn1D-28" value="" style="group" vertex="1" connectable="0" parent="1">
          <mxGeometry x="359" y="425" width="171" height="60" as="geometry" />
        </mxCell>
        <mxCell id="gSIQm5aoGnnjR2GNyn1D-29" value="«User»&lt;br&gt;&lt;b&gt;k8user&lt;/b&gt;" style="html=1;dropTarget=0;whiteSpace=wrap;" vertex="1" parent="gSIQm5aoGnnjR2GNyn1D-28">
          <mxGeometry width="171" height="60" as="geometry" />
        </mxCell>
        <mxCell id="gSIQm5aoGnnjR2GNyn1D-30" value="" style="shape=note2;boundedLbl=1;whiteSpace=wrap;html=1;size=6;verticalAlign=top;align=left;spacingLeft=5;" vertex="1" parent="gSIQm5aoGnnjR2GNyn1D-28">
          <mxGeometry x="151" y="2.5" width="17.85" height="22.5" as="geometry" />
        </mxCell>
        <mxCell id="gSIQm5aoGnnjR2GNyn1D-34" value="«device»&amp;nbsp;&lt;b&gt;artpc18 (node)&lt;/b&gt;" style="verticalAlign=top;align=center;shape=cube;size=10;direction=south;html=1;boundedLbl=1;spacingLeft=5;whiteSpace=wrap;" vertex="1" parent="1">
          <mxGeometry x="590" y="320" width="200" height="220" as="geometry" />
        </mxCell>
        <mxCell id="gSIQm5aoGnnjR2GNyn1D-35" style="edgeStyle=orthogonalEdgeStyle;rounded=0;orthogonalLoop=1;jettySize=auto;html=1;exitX=0.5;exitY=0;exitDx=0;exitDy=0;endArrow=open;endFill=0;entryX=0.5;entryY=1;entryDx=0;entryDy=0;endSize=11;dashed=1;" edge="1" parent="1" source="gSIQm5aoGnnjR2GNyn1D-36" target="gSIQm5aoGnnjR2GNyn1D-39">
          <mxGeometry relative="1" as="geometry">
            <mxPoint x="685" y="420" as="targetPoint" />
          </mxGeometry>
        </mxCell>
        <mxCell id="gSIQm5aoGnnjR2GNyn1D-36" value="«SSH Config»&lt;br&gt;&lt;b&gt;Ordner .ssh erstellen&lt;/b&gt;&lt;div&gt;&lt;b&gt;authorized_keys hinterlegen&lt;/b&gt;&lt;/div&gt;" style="html=1;dropTarget=0;whiteSpace=wrap;" vertex="1" parent="1">
          <mxGeometry x="600" y="455" width="170" height="65" as="geometry" />
        </mxCell>
        <mxCell id="gSIQm5aoGnnjR2GNyn1D-37" value="" style="shape=module;jettyWidth=8;jettyHeight=4;" vertex="1" parent="gSIQm5aoGnnjR2GNyn1D-36">
          <mxGeometry x="1" width="20" height="20" relative="1" as="geometry">
            <mxPoint x="-27" y="7" as="offset" />
          </mxGeometry>
        </mxCell>
        <mxCell id="gSIQm5aoGnnjR2GNyn1D-38" value="" style="group" vertex="1" connectable="0" parent="1">
          <mxGeometry x="599" y="355" width="171" height="60" as="geometry" />
        </mxCell>
        <mxCell id="gSIQm5aoGnnjR2GNyn1D-39" value="«User»&lt;br&gt;&lt;b&gt;k8user&lt;/b&gt;" style="html=1;dropTarget=0;whiteSpace=wrap;" vertex="1" parent="gSIQm5aoGnnjR2GNyn1D-38">
          <mxGeometry width="171" height="60" as="geometry" />
        </mxCell>
        <mxCell id="gSIQm5aoGnnjR2GNyn1D-40" value="" style="shape=note2;boundedLbl=1;whiteSpace=wrap;html=1;size=6;verticalAlign=top;align=left;spacingLeft=5;" vertex="1" parent="gSIQm5aoGnnjR2GNyn1D-38">
          <mxGeometry x="151" y="2.5" width="17.85" height="22.5" as="geometry" />
        </mxCell>
        <mxCell id="gSIQm5aoGnnjR2GNyn1D-41" style="rounded=0;orthogonalLoop=1;jettySize=auto;html=1;exitX=0;exitY=0;exitDx=95;exitDy=0;exitPerimeter=0;entryX=0.136;entryY=0.985;entryDx=0;entryDy=0;entryPerimeter=0;" edge="1" parent="1" source="gSIQm5aoGnnjR2GNyn1D-6" target="gSIQm5aoGnnjR2GNyn1D-34">
          <mxGeometry relative="1" as="geometry" />
        </mxCell>
        <mxCell id="gSIQm5aoGnnjR2GNyn1D-42" value="&lt;span style=&quot;font-size: 12px; text-wrap: wrap; background-color: rgb(251, 251, 251);&quot;&gt;«&lt;/span&gt;protocol&lt;span style=&quot;font-size: 12px; text-wrap: wrap; background-color: rgb(251, 251, 251);&quot;&gt;»&lt;/span&gt;&lt;br&gt;ssh" style="edgeLabel;html=1;align=center;verticalAlign=middle;resizable=0;points=[];" vertex="1" connectable="0" parent="1">
          <mxGeometry x="419.9956221650613" y="330.00173643378844" as="geometry" />
        </mxCell>
        <mxCell id="gSIQm5aoGnnjR2GNyn1D-43" style="edgeStyle=orthogonalEdgeStyle;rounded=0;orthogonalLoop=1;jettySize=auto;html=1;exitX=0.5;exitY=0;exitDx=0;exitDy=0;endArrow=open;endFill=0;entryX=0.5;entryY=1;entryDx=0;entryDy=0;endSize=11;dashed=1;" edge="1" parent="1" source="gSIQm5aoGnnjR2GNyn1D-44" target="gSIQm5aoGnnjR2GNyn1D-47">
          <mxGeometry relative="1" as="geometry">
            <mxPoint x="456" y="186" as="targetPoint" />
          </mxGeometry>
        </mxCell>
        <mxCell id="gSIQm5aoGnnjR2GNyn1D-44" value="«SSH Config»&lt;br&gt;&lt;b&gt;Ordner .ssh erstellen&lt;/b&gt;&lt;div&gt;&lt;b&gt;authorized_keys hinterlegen&lt;/b&gt;&lt;/div&gt;" style="html=1;dropTarget=0;whiteSpace=wrap;" vertex="1" parent="1">
          <mxGeometry x="371" y="221" width="170" height="65" as="geometry" />
        </mxCell>
        <mxCell id="gSIQm5aoGnnjR2GNyn1D-45" value="" style="shape=module;jettyWidth=8;jettyHeight=4;" vertex="1" parent="gSIQm5aoGnnjR2GNyn1D-44">
          <mxGeometry x="1" width="20" height="20" relative="1" as="geometry">
            <mxPoint x="-27" y="7" as="offset" />
          </mxGeometry>
        </mxCell>
        <mxCell id="gSIQm5aoGnnjR2GNyn1D-46" value="" style="group" vertex="1" connectable="0" parent="1">
          <mxGeometry x="370" y="121" width="171" height="60" as="geometry" />
        </mxCell>
        <mxCell id="gSIQm5aoGnnjR2GNyn1D-47" value="«User»&lt;br&gt;&lt;b&gt;k8user&lt;/b&gt;" style="html=1;dropTarget=0;whiteSpace=wrap;" vertex="1" parent="gSIQm5aoGnnjR2GNyn1D-46">
          <mxGeometry width="171" height="60" as="geometry" />
        </mxCell>
        <mxCell id="gSIQm5aoGnnjR2GNyn1D-48" value="" style="shape=note2;boundedLbl=1;whiteSpace=wrap;html=1;size=6;verticalAlign=top;align=left;spacingLeft=5;" vertex="1" parent="gSIQm5aoGnnjR2GNyn1D-46">
          <mxGeometry x="151" y="2.5" width="17.85" height="22.5" as="geometry" />
        </mxCell>
        <mxCell id="gSIQm5aoGnnjR2GNyn1D-49" value="«IP Adresse»&lt;br&gt;&lt;b&gt;134.100.7.111/24&lt;/b&gt;" style="html=1;dropTarget=0;whiteSpace=wrap;" vertex="1" parent="1">
          <mxGeometry x="560" y="157.5" width="170" height="65" as="geometry" />
        </mxCell>
        <mxCell id="gSIQm5aoGnnjR2GNyn1D-50" value="" style="shape=module;jettyWidth=8;jettyHeight=4;" vertex="1" parent="gSIQm5aoGnnjR2GNyn1D-49">
          <mxGeometry x="1" width="20" height="20" relative="1" as="geometry">
            <mxPoint x="-27" y="7" as="offset" />
          </mxGeometry>
        </mxCell>
      </root>
    </mxGraphModel>
  </diagram>
</mxfile>
